<?xml version="1.0" encoding="UTF-8"?><svg id="Layer_1" xmlns="http://www.w3.org/2000/svg" viewBox="0 0 487.291 118.118"><path d="M80.018,118.004c28.454-10.162,45.589-37.714,40.49-66.668-4.444-25.233-19.446-42.279-44.178-48.934-24.602-6.621-46.176.557-62.252,20.222C-2.167,42.495-4.107,65.017,6.987,88.122c6.751,14.061,18.049,23.697,32.709,29.197,4.674,1.754,6.034.741,6.105-4.221.042-2.974.008-5.948.008-9.124-7.047,1.206-13.705,1.535-18.435-4.169-3.814-4.598-6.889-9.81-10.234-14.664,4.141-1.453,7.44-.122,11.237,5.574,3.34,5.011,7.706,7.018,13.613,6.149,5.735-.843,4.413-6.332,7.312-9.543-1.457-.189-2.116-.26-2.771-.362-20.013-3.118-30.987-23.739-21.366-40.783,2.018-3.575,2.643-6.6,2.203-10.601-1.115-10.133,2.285-12.343,11.436-7.998,1.2.57,2.296,1.491,3.55,1.789,2.442.581,4.955,1.125,7.449,1.173,7.28.14,14.567.14,21.845-.046,2.642-.067,5.368-.505,7.878-1.322,4.162-1.354,8.181-3.152,13.719-5.339.302,5.679.438,9.883.786,14.069.167,2.009.189,4.333,1.204,5.922,10.462,16.381,2.123,37.805-16.63,42.331-1.927.465-3.88.819-4.68.987.645,5.797,1.404,11.435,1.854,17.097.263,3.312-.296,6.711.182,9.973.208,1.418,2.095,2.59,4.056,3.793M175.804,113.714c12.064,2.808,23.806,1.564,35.218-3.001,1.335-.534,3.248-1.985,3.277-3.054.256-9.571.149-19.151.149-28.742h-25.328v10.743h9.443v12.056c-10.343,3.982-21.764.739-25.63-7.878-3.874-8.637-4.155-17.705,1.516-25.69,5.413-7.622,13.821-8.113,22.153-6.631,5.139.914,10.078,2.958,15.365,4.574,0-2.565-.254-5.085.059-7.533.486-3.812-.849-6.091-4.699-6.598-7.543-.992-15.138-2.933-22.637-2.631-17.096.688-29.001,11.443-30.865,26.452-2.356,18.967,5.093,32.16,21.98,37.932M306.418,50.11h-5.339v63.544h16.397v-26.446h24.137v26.472h15.898v-63.281h-15.997v23.808h-24.383v-24.097h-10.713M399.796,102.653c-7.739,2.096-10.687.203-11.333-7.541-.303-3.642-.269-7.316-.296-10.976-.044-5.947-.012-11.895-.012-17.704h-15.303c0,2.867-.059,5.362.01,7.853.264,9.467-.048,19.006,1.046,28.378.942,8.067,6.898,12.106,15.015,12.492,6.629.315,11.738-2.595,16.695-7.782v6.362h15.011v-47.426h-14.897c0,8.04.092,15.834-.034,23.626-.077,4.751-.892,9.323-5.903,12.719M262.256,108.819c7.771,8.156,17.682,4.035,26.865,5.329v-11.187c-3.282,0-6.376.479-9.211-.171-1.834-.42-4.599-2.405-4.694-3.838-.481-7.219-.221-14.487-.221-22.042h15.485v-11.004h-15.648v-13.035h-15.362v13.001c-2.731.168-4.992.307-7.18.441v10.548c2.608.143,4.87.267,7.407.406,0,5.151-.28,9.975.074,14.752.4,5.4,1.368,10.758,2.485,16.801M240.073,114.005c1.156-.719,3.312-1.425,3.322-2.159.196-15.107.147-30.216.147-45.513h-15.189v47.672c3.804,0,7.29,0,11.72,0M304.85,10.191c.137-.668.275-1.336.564-2.745,3.11,5.899,5.625,11.156,8.631,16.115,1.088,1.793,3.354,2.872,5.082,4.277.377-.387.755-.773,1.132-1.16V1.746c-5.581,1.42-2.817,5.616-3.188,8.255-.487,3.462-.119,7.043-.119,10.573-3.699-5.087-6.294-10.414-9.344-15.465-1.001-1.657-3.183-2.6-5.869-4.678v26.267c.4.236.8.472,1.2.708.637-.954,1.78-1.886,1.824-2.867.198-4.487.087-8.988.088-14.35M166.894,16.912c5.901.037,1.695,4.322,3.044,6.285-6.033,2.297-10.565,1.553-12.954-1.937-2.426-3.544-2.11-11.191.587-14.177,2.956-3.273,8.126-3.298,16.275.66-1.442-2.362-1.878-3.99-2.92-4.626-4.739-2.894-13.213-1.42-16.542,2.63-3.721,4.528-3.677,13.238.089,17.728,3.493,4.163,12.101,5.409,17.018,2.28.94-.598,1.839-1.949,1.946-3.033.275-2.765.091-5.576.091-8.552h-9.764c1.112,1.322,1.707,2.028,3.127,2.742M237.235,60.003h6.013v-12.152h-15.004v12.152h8.99M194.791,13.661c-3.808-.731-7.617-1.462-11.539-2.214v-6.813h12.257c-1.871-2.941-6.911-3.469-15.626-2.077v24.03h15.764c.074-.622.147-1.243.221-1.865-4.191-.331-8.382-.661-12.693-1.001v-8.321c4.016-.289,7.77-.56,11.617-1.739M241.103,2c-2.089,2.6-2.102,2.732.383,2.965,2.098.197,4.23.041,6.747.041,0,6.52-.109,12.615.09,18.7.041,1.255,1.233,2.473,1.894,3.707.57-.214,1.139-.427,1.709-.641V5.187c3.231-.165,5.961-.305,8.899-.455q-1.42-2.74-19.722-2.732M200.593,2.045c-.935.557-1.87,1.115-2.805,1.672.904.415,1.781,1.097,2.717,1.188,1.912.187,3.855.056,6.106.056,0,6.688-.065,12.809.063,18.926.022,1.037.874,2.057,1.342,3.085.625-1.032,1.762-2.051,1.791-3.1.17-6.251.084-12.508.084-19.169h8.827c.056-.622.111-1.244.167-1.867-5.579-1.817-11.594-.281-18.291-.793M232.836,21.359c0,.665-.191,1.407.039,1.98.503,1.254,1.218,2.422,1.847,3.625.504-1.175,1.415-2.34,1.443-3.526.146-6.148.142-12.304-.009-18.452-.024-.985-1.057-1.945-1.624-2.917-.565.951-1.589,1.888-1.619,2.856-.163,5.149-.077,10.306-.077,16.434Z" fill="#000" stroke-width="0"/><path d="M79.599,118.044c-1.543-1.243-3.43-2.415-3.638-3.834-.478-3.262.081-6.661-.182-9.973-.45-5.662-1.208-11.3-1.854-17.097.8-.167,2.753-.522,4.68-.987,18.753-4.526,27.091-25.95,16.63-42.331-1.015-1.589-1.037-3.913-1.204-5.922-.348-4.186-.484-8.39-.786-14.069-5.538,2.187-9.557,3.984-13.719,5.339-2.51.817-5.235,1.254-7.878,1.322-7.278.186-14.566.185-21.845.046-2.494-.048-5.007-.591-7.449-1.173-1.254-.298-2.35-1.219-3.55-1.789-9.151-4.346-12.551-2.135-11.436,7.998.44,4.001-.184,7.026-2.203,10.601-9.621,17.044,1.354,37.664,21.366,40.783.655.102,1.314.173,2.771.362-2.899,3.211-1.577,8.699-7.312,9.543-5.907.869-10.273-1.138-13.613-6.149-3.797-5.696-7.096-7.028-11.237-5.574,3.345,4.855,6.42,10.066,10.234,14.664,4.73,5.703,11.389,5.374,18.435,4.169,0,3.176.035,6.151-.008,9.124-.071,4.961-1.43,5.974-6.105,4.221-14.66-5.5-25.958-15.136-32.709-29.197C-4.107,65.017-2.167,42.495,14.077,22.623,30.153,2.958,51.727-4.22,76.33,2.401c24.732,6.656,39.734,23.701,44.178,48.934,5.099,28.955-12.036,56.506-40.909,66.709Z" fill="#000" stroke-width="0"/><path d="M175.431,113.55c-16.514-5.609-23.963-18.802-21.607-37.769,1.864-15.009,13.769-25.765,30.865-26.452,7.499-.302,15.095,1.639,22.637,2.631,3.85.507,5.185,2.785,4.699,6.598-.312,2.448-.059,4.968-.059,7.533-5.287-1.616-10.226-3.66-15.365-4.574-8.332-1.482-16.739-.991-22.153,6.631-5.671,7.985-5.39,17.053-1.516,25.69,3.865,8.617,15.286,11.86,25.63,7.878v-12.056h-9.443v-10.743h25.328c0,9.591.107,19.171-.149,28.742-.029,1.069-1.942,2.52-3.277,3.054-11.412,4.565-23.155,5.809-35.591,2.838Z" fill="#000" stroke-width="0"/><path d="M306.898,50.11h10.233v24.097h24.383v-23.808h15.997v63.281h-15.898v-26.472h-24.137v26.446h-16.397v-63.544h5.818Z" fill="#000" stroke-width="0"/><path d="M479.258,110.502c-9.46,7.028-17.289,6.36-27.979-2.407-.168,1.976-.312,3.682-.479,5.642h-14.646V47.743h14.816v24.193c3.299-2.129,5.938-4.467,9.019-5.703,9.954-3.992,20.746.783,24.705,11.469,4.288,11.576,3.784,22.853-5.435,32.801M451.215,87.047c.246,3.297.083,6.691.833,9.869,1.198,5.075,5.408,7.638,10.519,7.068,5.856-.654,9.025-5.981,8.722-14.663-.296-8.502-3.675-13.362-9.754-13.108-2.425.101-5.349,1.231-7.016,2.914-1.701,1.718-2.139,4.688-3.305,7.921Z" fill="#000" stroke-width="0"/><path d="M400.102,102.432c4.705-3.175,5.52-7.747,5.597-12.498.126-7.791.034-15.586.034-23.626h14.897v47.426h-15.011v-6.362c-4.957,5.188-10.066,8.097-16.695,7.782-8.116-.385-14.073-4.424-15.015-12.492-1.094-9.373-.783-18.911-1.046-28.378-.069-2.491-.01-4.986-.01-7.853h15.303c0,5.809-.032,11.757.012,17.704.027,3.66-.008,7.334.296,10.976.645,7.744,3.594,9.637,11.639,7.321Z" fill="#000" stroke-width="0"/><path d="M262.059,108.485c-.919-5.71-1.887-11.068-2.287-16.467-.354-4.777-.074-9.601-.074-14.752-2.536-.139-4.799-.263-7.407-.406v-10.548c2.188-.135,4.449-.274,7.18-.441v-13.001h15.362v13.035h15.648v11.004h-15.485c0,7.555-.26,14.823.221,22.042.095,1.434,2.86,3.418,4.694,3.838,2.835.65,5.929.171,9.211.171v11.187c-9.183-1.294-19.094,2.827-27.063-5.662Z" fill="#000" stroke-width="0"/><path d="M239.601,114.005c-3.958,0-7.444,0-11.248,0v-47.672h15.189c0,15.297.049,30.407-.147,45.513-.01.734-2.165,1.44-3.794,2.159Z" fill="#000" stroke-width="0"/><path d="M304.85,10.624c0,4.929.11,9.43-.088,13.917-.043.98-1.187,1.912-1.824,2.867-.4-.236-.8-.472-1.2-.708V.432c2.687,2.078,4.869,3.021,5.869,4.678,3.05,5.051,5.645,10.378,9.344,15.465,0-3.53-.368-7.112.119-10.573.371-2.639-2.393-6.835,3.188-8.255v24.931c-.377.387-.755.773-1.132,1.16-1.728-1.405-3.995-2.484-5.082-4.277-3.007-4.958-5.521-10.215-8.631-16.115-.29,1.409-.427,2.077-.565,3.179Z" fill="#000" stroke-width="0"/><path d="M166.481,16.908c-1.007-.71-1.602-1.417-2.714-2.739h9.764c0,2.976.183,5.787-.091,8.552-.108,1.084-1.006,2.434-1.946,3.033-4.918,3.129-13.525,1.883-17.018-2.28-3.767-4.49-3.811-13.2-.089-17.728,3.329-4.05,11.803-5.524,16.542-2.63,1.041.636,1.477,2.263,2.92,4.626-8.149-3.957-13.319-3.932-16.275-.66-2.697,2.986-3.014,10.633-.587,14.177,2.389,3.49,6.921,4.234,12.954,1.937-1.349-1.963,2.857-6.248-3.457-6.289Z" fill="#000" stroke-width="0"/><path d="M278.411,3.421c6.462-2.726,11.535-1.964,14.902,1.968,3.298,3.851,3.918,11.779,1.293,16.512-2.39,4.308-6.978,6.256-12.386,5.261-8.195-1.509-11.964-12.837-6.81-20.63.717-1.084,1.794-1.93,3.001-3.11M281.95,4.995c-5.292,3.726-6.841,10.936-3.475,16.17,2.239,3.481,6.579,4.576,10.056,2.537,3.542-2.077,5.157-7.909,3.618-13.053-1.409-4.709-4.394-6.887-10.2-5.654Z" fill="#000" stroke-width="0"/><path d="M236.756,60.003h-8.511v-12.152h15.004v12.152h-6.492Z" fill="#000" stroke-width="0"/><path d="M194.744,14.115c-3.8.725-7.554.995-11.57,1.285v8.321c4.311.34,8.502.671,12.693,1.001-.074.622-.147,1.243-.221,1.865h-15.764V2.556c8.714-1.392,13.754-.864,15.626,2.077h-12.257v6.813c3.923.753,7.731,1.484,11.493,2.669Z" fill="#000" stroke-width="0"/><path d="M241.534,1.997q17.872-.005,19.292,2.735c-2.937.15-5.667.29-8.899.455v21.586c-.57.214-1.139.427-1.709.641-.661-1.235-1.853-2.452-1.894-3.707-.199-6.085-.09-12.18-.09-18.7-2.517,0-4.649.156-6.747-.041-2.485-.233-2.473-.365.047-2.968Z" fill="#000" stroke-width="0"/><path d="M201.067,2.045c6.223.512,12.238-1.024,17.817.793-.056.622-.111,1.244-.167,1.867h-8.827c0,6.66.086,12.918-.084,19.169-.029,1.049-1.166,2.067-1.791,3.1-.468-1.028-1.32-2.048-1.342-3.085-.128-6.117-.063-12.238-.063-18.926-2.252,0-4.194.131-6.106-.056-.935-.091-1.813-.774-2.717-1.188.935-.557,1.87-1.115,3.28-1.672Z" fill="#000" stroke-width="0"/><path d="M232.836,20.872c0-5.641-.086-10.798.077-15.947.031-.968,1.054-1.905,1.619-2.856.567.972,1.599,1.932,1.624,2.917.151,6.148.156,12.304.009,18.452-.028,1.186-.939,2.351-1.443,3.526-.629-1.203-1.345-2.371-1.847-3.625-.23-.573-.039-1.314-.039-2.466Z" fill="#000" stroke-width="0"/></svg>