<?xml version="1.0" encoding="UTF-8"?><svg id="svg5442" xmlns="http://www.w3.org/2000/svg" xmlns:xlink="http://www.w3.org/1999/xlink" viewBox="0 0 97.091 22.859"><defs><linearGradient id="linear-gradient" x1="-21.182" y1="1068.883" x2="-42.678" y2="1068.883" gradientTransform="translate(37.654 -993.647) scale(.944)" gradientUnits="userSpaceOnUse"><stop offset="0" stop-color="#ffde00"/><stop offset=".194" stop-color="#fdce00"/><stop offset=".547" stop-color="#f9b300"/><stop offset=".828" stop-color="#f7a100"/><stop offset="1" stop-color="#f69b00"/></linearGradient><linearGradient id="linear-gradient-2" x1="-26.795" y1="1070.884" x2="-47.013" y2="1091.102" gradientTransform="translate(37.654 -993.647) scale(.944)" gradientUnits="userSpaceOnUse"><stop offset="0" stop-color="#e93b3d"/><stop offset="1" stop-color="#c51a65"/></linearGradient><linearGradient id="linear-gradient-3" x1="-47.031" y1="1046.495" x2="-30.523" y2="1063.002" gradientTransform="translate(37.654 -993.647) scale(.944)" gradientUnits="userSpaceOnUse"><stop offset="0" stop-color="#1a9c67"/><stop offset=".317" stop-color="#49a963"/><stop offset=".74" stop-color="#6bb95e"/><stop offset="1" stop-color="#76c05c"/></linearGradient></defs><g id="g7662"><g id="g7180"><g id="g7132"><g id="g7089"><path id="path7075" d="M31.42,2.921c0,.658-.189,1.223-.66,1.693s-1.132.752-1.887.752-1.321-.282-1.887-.752c-.472-.47-.755-1.128-.755-1.881s.283-1.411.755-1.881,1.132-.752,1.887-.752c.377,0,.66.094,1.038.188.283.094.566.282.755.564l-.472.47c-.377-.376-.755-.564-1.415-.564-.566,0-.944.188-1.415.564-.377.376-.566.846-.566,1.411s.189,1.034.566,1.411c.377.376.849.564,1.415.564s1.038-.188,1.415-.564c.283-.282.377-.564.377-1.034h-1.698v-.564h2.453c.094.094.094.282.094.376h0Z" fill="#000" stroke="#fff" stroke-miterlimit="10" stroke-width=".2"/><path id="path7077" d="M35.288.852h-2.265v1.599h2.076v.564h-2.076v1.599h2.265v.658h-2.925V.194h2.925v.658Z" fill="#000" stroke="#fff" stroke-miterlimit="10" stroke-width=".2"/><path id="path7079" d="M38.025,5.272h-.66V.852h-1.415V.194h3.491v.658h-1.415v4.42h0Z" fill="#000" stroke="#fff" stroke-miterlimit="10" stroke-width=".2"/><path id="path7081" d="M41.893,5.272V.194h.66v4.984h-.66v.094Z" fill="#000" stroke="#fff" stroke-miterlimit="10" stroke-width=".2"/><path id="path7083" d="M45.384,5.272h-.66V.852h-1.415V.194h3.491v.658h-1.415v4.42h0Z" fill="#000" stroke="#fff" stroke-miterlimit="10" stroke-width=".2"/><path id="path7085" d="M53.404,4.614c-.472.47-1.132.752-1.887.752s-1.321-.282-1.887-.752c-.472-.47-.755-1.128-.755-1.881s.283-1.317.755-1.881c.472-.47,1.132-.752,1.887-.752s1.321.282,1.887.752c.472.47.755,1.128.755,1.881-.094.752-.283,1.317-.755,1.881ZM50.102,4.144c.377.376.849.564,1.321.564.566,0,1.038-.188,1.321-.564.377-.376.566-.846.566-1.411s-.189-1.034-.566-1.411-.849-.564-1.321-.564c-.566,0-1.038.188-1.321.564-.377.376-.566.846-.566,1.411.094.564.283,1.034.566,1.411Z" fill="#000" stroke="#fff" stroke-miterlimit="10" stroke-width=".2"/><path id="path7087" d="M55.008,5.272V.194h.755l2.453,3.856h0V.194h.66v4.984h-.66l-2.548-4.044h0v4.044h-.66v.094Z" fill="#000" stroke="#fff" stroke-miterlimit="10" stroke-width=".2"/></g><path id="path7091" d="M48.781,12.513c-1.981,0-3.585,1.505-3.585,3.574s1.604,3.574,3.585,3.574,3.585-1.505,3.585-3.574-1.604-3.574-3.585-3.574ZM48.781,18.25c-1.038,0-1.981-.846-1.981-2.163s.944-2.163,1.981-2.163,1.981.846,1.981,2.163-.944,2.163-1.981,2.163ZM40.95,12.513c-1.981,0-3.585,1.505-3.585,3.574s1.604,3.574,3.585,3.574,3.585-1.505,3.585-3.574-1.604-3.574-3.585-3.574ZM40.95,18.25c-1.038,0-1.981-.846-1.981-2.163s.944-2.163,1.981-2.163,1.981.846,1.981,2.163-.849,2.163-1.981,2.163ZM31.703,13.642v1.505h3.585c-.094.846-.377,1.505-.849,1.881-.566.564-1.321,1.128-2.831,1.128-2.265,0-3.963-1.787-3.963-4.044s1.698-4.044,3.963-4.044c1.227,0,2.076.47,2.736,1.034l1.038-1.034c-.944-.846-2.076-1.505-3.774-1.505-3.019,0-5.661,2.445-5.661,5.548,0,3.009,2.548,5.548,5.661,5.548,1.604,0,2.925-.564,3.869-1.505,1.038-1.034,1.321-2.351,1.321-3.574,0-.376,0-.658-.094-.94h-5.001v.002ZM69.633,14.77c-.283-.752-1.227-2.257-3.019-2.257s-3.397,1.411-3.397,3.574c0,1.975,1.51,3.574,3.585,3.574,1.604,0,2.548-1.034,3.019-1.599l-1.321-.752c-.377.564-.944.94-1.793.94-.755,0-1.321-.376-1.698-1.034l4.812-1.975-.189-.47h.001ZM64.821,15.993c0-1.411,1.038-2.069,1.887-2.069.66,0,1.132.282,1.321.752l-3.208,1.317ZM60.953,19.472h1.604v-10.438h-1.604v10.438ZM58.311,13.36h0c-.377-.376-1.038-.752-1.887-.752-1.793,0-3.397,1.599-3.397,3.574s1.604,3.574,3.397,3.574c.849,0,1.51-.376,1.887-.846h.094v.47c0,1.317-.755,2.069-1.887,2.069-.944,0-1.51-.658-1.793-1.223l-1.321.564c.377.94,1.415,2.069,3.208,2.069s3.397-1.034,3.397-3.668v-6.395h-1.51v.564h-.189,0ZM56.518,18.25c-1.038,0-1.981-.94-1.981-2.163s.944-2.163,1.981-2.163,1.887.94,1.887,2.163c.094,1.317-.755,2.163-1.887,2.163ZM76.993,9.034h-3.774v10.438h1.604v-3.95h2.17c1.698,0,3.397-1.223,3.397-3.291s-1.604-3.197-3.397-3.197ZM77.087,14.018h-2.265v-3.574h2.265c1.132,0,1.793.94,1.793,1.787s-.66,1.787-1.793,1.787ZM86.711,12.513c-1.132,0-2.265.47-2.831,1.599l1.415.564c.283-.564.849-.752,1.415-.752.849,0,1.604.47,1.604,1.317v.094c-.283-.188-.849-.376-1.604-.376-1.51,0-3.019.846-3.019,2.351,0,1.411,1.227,2.257,2.642,2.257,1.038,0,1.604-.47,1.981-1.034h.094v.846h1.51v-4.044c0-1.787-1.415-2.821-3.208-2.821h0ZM86.523,18.25c-.472,0-1.227-.282-1.227-.846,0-.846.849-1.128,1.698-1.128.66,0,1.038.188,1.415.376-.094.94-.944,1.599-1.887,1.599h0ZM95.392,12.796l-1.793,4.514h-.094l-1.887-4.514h-1.698l2.831,6.301-1.604,3.479h1.604l4.34-9.874h-1.698v.094h0ZM81.333,19.472h1.604v-10.438h-1.604v10.438Z" fill="#000" stroke-width="0"/><g id="g7130"><g id="g7128"><g id="g7126"><path id="path7093" d="M.377.664c-.283.282-.377.658-.377,1.223v18.432c0,.564.189.94.377,1.128l.094.094,10.379-10.344v-.188L.377.664Z" fill="#6cc8f0" stroke-width="0"/><path id="path7106" d="M14.247,14.676l-3.491-3.479v-.188l3.491-3.479h.094l4.057,2.351c1.132.658,1.132,1.787,0,2.445l-4.152,2.351h0Z" fill="url(#linear-gradient)" stroke-width="0"/><path id="path7113" d="M14.342,14.582l-3.585-3.574L.378,21.54c.377.376,1.038.47,1.698.094l12.266-7.053" fill="url(#linear-gradient-2)" stroke-width="0"/><path id="path7124" d="M14.342,7.529L2.076.57c-.66-.376-1.321-.282-1.698.094l10.473,10.438,3.491-3.574h0Z" fill="url(#linear-gradient-3)" stroke-width="0"/></g></g></g></g></g></g></svg>