<?xml version="1.0" encoding="UTF-8"?><svg id="svg5442" xmlns="http://www.w3.org/2000/svg" viewBox="0 0 84.356 21.253"><g id="layer1"><g id="g7662"><g id="g7514"><path d="M13.968,11.003c0-2.633,2.17-3.856,2.265-3.95-1.227-1.787-3.114-1.975-3.774-2.069-1.604-.188-3.114.94-3.963.94s-2.076-.94-3.397-.94c-1.698,0-3.302,1.034-4.246,2.539-1.793,3.103-.472,7.805,1.321,10.344.849,1.223,1.887,2.633,3.208,2.633,1.321-.094,1.793-.846,3.397-.846s1.981.846,3.397.846,2.265-1.223,3.114-2.539c1.038-1.411,1.415-2.821,1.415-2.915,0,.094-2.736-.94-2.736-4.044h-.001Z" fill="#000" stroke-width="0"/><path d="M11.326,3.386c.66-.846,1.227-2.069,1.038-3.291-1.038,0-2.265.658-3.019,1.599-.66.752-1.227,1.975-1.038,3.197,1.132,0,2.359-.658,3.019-1.505Z" fill="#000" stroke-width="0"/><g id="g7449"><path id="path7441" d="M25.668,12.038h1.793v1.223h.094c.566-.846,1.321-1.411,2.736-1.411,1.038,0,2.076.47,2.453,1.411.66-.94,1.51-1.411,2.736-1.411,1.887,0,2.925.846,2.925,2.915v6.019h-1.981v-5.078c0-1.411-.094-2.351-1.604-2.351-1.321,0-1.887.846-1.887,2.351v5.172h-1.981v-5.642c0-1.223-.377-1.881-1.51-1.881-1.038,0-1.887.846-1.887,2.257v5.172h-1.981v-8.746s.094,0,.094,0Z" fill="#000" stroke-width="0"/><path id="path7443" d="M57.182,14.953c-.189-1.034-.944-1.599-1.981-1.599s-2.453.564-2.453,3.197c0,1.411.66,3.009,2.359,3.009,1.132,0,1.887-.752,2.076-1.975h1.981c-.377,2.257-1.793,3.479-4.057,3.479-2.736,0-4.246-1.975-4.246-4.514,0-2.633,1.415-4.702,4.34-4.702,2.076,0,3.774,1.034,3.963,3.197h-1.981v-.094.002Z" fill="#000" stroke-width="0"/><path id="path7445" d="M72.562,14.765c0,3.479-2.17,6.301-5.85,6.301s-5.85-2.915-5.85-6.301,2.17-6.301,5.85-6.301c3.68-.094,5.85,2.821,5.85,6.301ZM63.127,14.765c0,2.351,1.132,4.608,3.68,4.608s3.68-2.257,3.68-4.608-1.132-4.608-3.68-4.608-3.68,2.257-3.68,4.608Z" fill="#000" stroke-width="0"/><path id="path7447" d="M76.619,16.74c0,1.881,1.415,2.633,3.114,2.633,1.887,0,2.548-.94,2.548-1.787,0-.94-.472-1.317-1.038-1.505-.849-.282-1.981-.564-3.585-1.034-2.076-.564-2.642-1.787-2.642-3.103,0-2.445,2.265-3.574,4.435-3.574,2.548,0,4.623,1.317,4.623,3.856h-2.076c-.094-1.599-1.132-2.163-2.642-2.163-.944,0-2.265.376-2.265,1.599,0,.846.566,1.317,1.415,1.599.189.094,2.831.752,3.491.94,1.604.47,2.359,1.787,2.359,3.103,0,2.727-2.453,3.762-4.812,3.762-2.736,0-5.001-1.317-5.095-4.326h2.17Z" fill="#000" stroke-width="0"/></g><path id="path7451" d="M40.765,18.432c0-1.599,1.227-2.539,3.302-2.633l2.453-.094v-.752c0-.94-.66-1.505-1.887-1.505-.944,0-1.698.376-1.887,1.034h-1.698c.189-1.505,1.604-2.539,3.68-2.539,2.265,0,3.491,1.128,3.491,3.009v6.113h-1.698v-1.223h-.094c-.566.94-1.51,1.411-2.736,1.411-1.698-.188-2.925-1.223-2.925-2.821h0ZM46.52,17.586v-.752l-2.17.188c-1.227.094-1.793.47-1.793,1.317s.66,1.317,1.698,1.317c1.321-.094,2.265-.94,2.265-2.069h0Z" fill="#000" stroke-width="0"/><g id="g7477"><g id="g7459"><path id="path7453" d="M68.222,1.693h.66v-.376c0-1.034.566-1.223,1.132-1.223.283,0,.472,0,.66.094v.658h-.377c-.283,0-.472.094-.472.376v.376h.755v.658h-.755v3.385h-.944v-3.385h-.66v-.564h0Z" fill="#000" stroke-width="0"/><path id="path7455" d="M71.241,3.668c0-1.223.755-2.163,2.076-2.163s2.076.846,2.076,2.163c0,1.223-.755,2.163-2.076,2.163s-2.076-.94-2.076-2.163ZM74.449,3.668c0-.658-.377-1.411-1.132-1.411s-1.132.752-1.132,1.411.377,1.411,1.132,1.411,1.132-.752,1.132-1.411Z" fill="#000" stroke-width="0"/><path id="path7457" d="M76.336,1.693h.849v.752h0c.094-.47.66-.846,1.227-.846h.377v.846h-.377c-.566,0-1.132.47-1.132,1.411v1.881h-.849V1.693h-.095Z" fill="#000" stroke-width="0"/></g><path id="path7461" d="M28.027.283c1.698,0,2.642,1.034,2.642,2.821s-.944,2.821-2.642,2.821h-2.076V.283h2.076ZM26.894,5.079h1.038c1.132,0,1.887-.752,1.887-1.975s-.66-1.975-1.887-1.975h-1.038v3.95Z" fill="#000" stroke-width="0"/><path id="path7463" d="M31.612,3.762c0-1.411.755-2.163,1.981-2.163s1.981.846,1.981,2.163c0,1.411-.755,2.163-1.981,2.163s-1.981-.846-1.981-2.163ZM34.82,3.762c0-.94-.377-1.411-1.132-1.411s-1.132.564-1.132,1.411c0,.94.377,1.505,1.132,1.505.66-.094,1.132-.564,1.132-1.505Z" fill="#000" stroke-width="0"/><path id="path7465" d="M40.953,5.831h-.849l-.849-3.103h-.094l-.849,3.103h-.849l-1.132-4.232h.849l.755,3.197h.094l.849-3.197h.755l.849,3.197h.094l.755-3.197h.849s-1.227,4.232-1.227,4.232Z" fill="#000" stroke-width="0"/><path id="path7467" d="M43.123,1.599h.849v.658h.094c.189-.47.66-.752,1.227-.752.944,0,1.51.564,1.51,1.599v2.727h-.849v-2.539c0-.658-.283-1.034-.944-1.034s-1.038.376-1.038,1.034v2.445h-.849s0-4.138,0-4.138Z" fill="#000" stroke-width="0"/><path id="path7469" d="M48.124,0h.849v5.925h-.849V0Z" fill="#000" stroke-width="0"/><path id="path7471" d="M50.106,3.762c0-1.411.755-2.163,1.981-2.163s1.981.846,1.981,2.163c0,1.411-.755,2.163-1.981,2.163s-1.981-.846-1.981-2.163ZM53.219,3.762c0-.94-.377-1.411-1.132-1.411s-1.132.564-1.132,1.411c0,.94.377,1.505,1.132,1.505.755-.094,1.132-.564,1.132-1.505Z" fill="#000" stroke-width="0"/><path id="path7473" d="M55.012,4.702c0-.752.566-1.223,1.604-1.223l1.132-.094v-.376c0-.47-.283-.658-.849-.658-.472,0-.755.188-.849.47h-.849c.094-.752.755-1.223,1.698-1.223,1.038,0,1.698.564,1.698,1.411v2.915h-.849v-.564h-.094c-.283.47-.755.658-1.321.658-.755-.094-1.321-.564-1.321-1.317h0ZM57.748,4.326v-.376l-1.038.094c-.566,0-.849.282-.849.564,0,.376.377.564.755.564.66.094,1.132-.376,1.132-.846Z" fill="#000" stroke-width="0"/><path id="path7475" d="M59.635,3.762c0-1.317.66-2.163,1.793-2.163.566,0,1.038.282,1.321.752h.094V0h.849v5.925h-.849v-.658h-.094c-.283.47-.755.752-1.321.752-1.132-.094-1.793-.94-1.793-2.257ZM60.485,3.762c0,.94.472,1.411,1.132,1.411s1.132-.564,1.132-1.411-.472-1.411-1.132-1.411-1.132.47-1.132,1.411Z" fill="#000" stroke-width="0"/></g></g></g></g></svg>