<?xml version="1.0" encoding="UTF-8"?><svg id="Badges" xmlns="http://www.w3.org/2000/svg" viewBox="0 0 108.092 24.59"><g id="Windows"><path d="M34.31,12.17h2.15l2.19,9.28h0l2.5-9.28h2.17l2.38,9.28h0l2.3-9.28h2.15l-3.34,12.17h-2.16l-2.43-9.29h0l-2.48,9.29h-2.23l-3.2-12.17Z" fill="#000" stroke-width="0"/><path d="M51.63,12.17h1.94v1.83h-1.94v-1.83ZM51.63,15.52h1.94v8.79h-1.94v-8.79Z" fill="#000" stroke-width="0"/><path d="M55.99,15.55h1.83v1.29h0c.28-.472.676-.864,1.15-1.14.479-.281,1.025-.426,1.58-.42.828-.049,1.643.219,2.28.75.594.588.897,1.407.83,2.24v6h-1.89v-5.46c.024-.537-.134-1.065-.45-1.5-.332-.338-.798-.51-1.27-.47-.303-.005-.603.056-.88.18-.258.11-.487.278-.67.49-.184.219-.326.47-.42.74-.11.287-.164.593-.16.9v5.19h-1.93v-8.79Z" fill="#000" stroke-width="0"/><path d="M74.33,24.34h-1.87v-1.17h0c-.238.487-.642.874-1.14,1.09-.498.219-1.036.332-1.58.33-.627-.004-1.245-.148-1.81-.42-.502-.229-.943-.571-1.29-1-.351-.437-.609-.94-.76-1.48-.175-.601-.263-1.224-.26-1.85-.016-.698.096-1.393.33-2.05.183-.532.476-1.019.86-1.43.337-.367.755-.651,1.22-.83.447-.17.922-.258,1.4-.26.282.003.563.03.84.08.278.049.55.13.81.24.258.115.5.263.72.44.222.172.412.382.56.62h0v-4.48h1.94l.03,12.17ZM67.56,20.04c0,.372.05.742.15,1.1.081.359.23.698.44,1,.198.282.458.514.76.68.332.176.704.262,1.08.25.391.011.777-.083,1.12-.27.303-.177.563-.42.76-.71.205-.305.353-.643.44-1,.104-.378.154-.768.15-1.16.049-.81-.184-1.612-.66-2.27-.422-.545-1.082-.85-1.77-.82-.402-.016-.8.081-1.15.28-.306.182-.566.431-.76.73-.205.303-.351.643-.43,1-.09.39-.134.79-.13,1.19Z" fill="#000" stroke-width="0"/><path d="M80.77,24.57c-.643.012-1.282-.103-1.88-.34-.527-.235-1-.575-1.39-1-.389-.425-.685-.925-.87-1.47-.387-1.21-.387-2.51,0-3.72.178-.524.46-1.007.83-1.42.384-.431.859-.773,1.39-1,1.21-.467,2.55-.467,3.76,0,.531.227,1.006.569,1.39,1,.389.421.685.918.87,1.46.4,1.208.4,2.512,0,3.72-.185.545-.481,1.045-.87,1.47-.39.425-.863.765-1.39,1-.588.218-1.213.32-1.84.3ZM80.77,23.04c.391.011.777-.083,1.12-.27.312-.176.582-.418.79-.71.204-.306.356-.644.45-1,.093-.37.14-.749.14-1.13-.003-.378-.05-.753-.14-1.12-.091-.357-.244-.695-.45-1-.208-.292-.478-.534-.79-.71-.343-.187-.729-.281-1.12-.27-.39-.009-.777.084-1.12.27-.311.174-.578.417-.78.71-.214.3-.367.64-.45,1-.098.365-.149.742-.15,1.12.012.384.076.764.19,1.13.086.359.238.698.45,1,.202.293.469.536.78.71.332.179.703.272,1.08.27Z" fill="#000" stroke-width="0"/><path d="M86.33,15.55h2.06l1.71,6.56h0l1.65-6.56h2l1.58,6.56h0l1.78-6.56h2l-2.75,8.79h-2l-1.63-6.53h0l-1.62,6.53h-2l-2.78-8.79Z" fill="#000" stroke-width="0"/><path d="M102.12,21.51c.01.479.252.923.65,1.19.406.237.87.355,1.34.34.206.013.414.013.62,0,.226-.027.447-.081.66-.16.194-.071.367-.192.5-.35.136-.169.201-.384.18-.6-.003-.232-.101-.452-.27-.61-.192-.173-.416-.306-.66-.39-.298-.099-.602-.179-.91-.24l-1-.22c-.338-.08-.672-.177-1-.29-.321-.108-.624-.263-.9-.46-.269-.193-.488-.446-.64-.74-.17-.345-.252-.726-.24-1.11-.015-.427.108-.848.35-1.2.232-.328.536-.599.89-.79.373-.199.774-.337,1.19-.41.412-.078.831-.118,1.25-.12.434,0,.866.047,1.29.14.4.095.781.253,1.13.47.332.22.614.506.83.84.231.38.374.807.42,1.25h-2c-.045-.395-.28-.742-.63-.93-.361-.165-.754-.247-1.15-.24h-.49c-.177.027-.351.07-.52.13-.161.053-.305.146-.42.27-.114.129-.175.297-.17.47-.009.221.083.435.25.58.186.163.404.286.64.36.297.106.601.19.91.25l1.06.22c.35.08.69.18,1,.29.326.104.633.26.91.46.591.413.931,1.099.9,1.82.015.466-.111.926-.36,1.32-.238.364-.556.669-.93.89-.39.232-.816.398-1.26.49-.453.098-.916.148-1.38.15-.519.005-1.036-.056-1.54-.18-.438-.114-.851-.307-1.22-.57-.342-.25-.623-.575-.82-.95-.209-.423-.315-.889-.31-1.36l1.85-.01Z" fill="#000" stroke-width="0"/><path d="M35.66.08h2.74c.45-.01.898.079,1.31.26.357.159.669.403.91.71.241.294.418.634.52,1,.123.415.183.847.18,1.28.003.436-.057.871-.18,1.29-.099.382-.276.739-.52,1.05-.241.304-.554.545-.91.7-.412.184-.859.273-1.31.26h-2.74V.08ZM36.82,5.74h1.14c.375.013.749-.048,1.1-.18.266-.106.5-.278.68-.5.165-.222.278-.478.33-.75.12-.614.12-1.246,0-1.86-.052-.272-.165-.528-.33-.75-.177-.233-.411-.415-.68-.53-.351-.132-.725-.193-1.1-.18h-1.14v4.75Z" fill="#000" stroke-width="0"/><path d="M44.55,6.81c-.343.005-.683-.06-1-.19-.288-.116-.547-.294-.76-.52-.212-.23-.372-.503-.47-.8-.111-.322-.165-.66-.16-1-.004-.34.05-.678.16-1,.193-.601.644-1.085,1.23-1.32.317-.13.657-.195,1-.19.343-.006.683.059,1,.19.287.118.546.295.76.52.213.229.373.502.47.8.113.321.171.659.17,1,.002.341-.056.679-.17,1-.193.601-.644,1.085-1.23,1.32-.317.131-.657.196-1,.19ZM44.55,5.98c.213.007.424-.045.61-.15.172-.094.32-.228.43-.39.112-.164.193-.347.24-.54.106-.4.106-.82,0-1.22-.043-.194-.125-.378-.24-.54-.11-.162-.258-.296-.43-.39-.186-.105-.397-.157-.61-.15-.213-.005-.424.047-.61.15-.167.097-.311.231-.42.39-.122.159-.208.344-.25.54-.106.4-.106.82,0,1.22.046.195.131.379.25.54.109.159.253.293.42.39.186.103.397.155.61.15Z" fill="#000" stroke-width="0"/><path d="M47.58,1.9h1.12l.93,3.57h0l.9-3.57h1.06l.87,3.57h0l1-3.57h1.07l-1.5,4.78h-1.08l-.89-3.51h0l-.88,3.55h-1.12l-1.48-4.82Z" fill="#000" stroke-width="0"/><path d="M55.37,1.9h1v.7h0c.155-.256.371-.47.63-.62.261-.152.558-.231.86-.23.45-.025.894.121,1.24.41.32.322.485.767.45,1.22v3.28h-1v-3c.017-.293-.068-.583-.24-.82-.181-.183-.433-.279-.69-.26-.168.001-.335.035-.49.1-.136.067-.258.158-.36.27-.1.119-.178.254-.23.4-.052.158-.079.324-.08.49v2.82h-1.09V1.9Z" fill="#000" stroke-width="0"/><path d="M60.88.08h1v6.6h-1V.08Z" fill="#000" stroke-width="0"/><path d="M65.46,6.81c-.343.005-.683-.06-1-.19-.586-.235-1.037-.719-1.23-1.32-.114-.321-.172-.659-.17-1,0-.341.057-.679.17-1,.097-.298.257-.571.47-.8.212-.232.471-.417.76-.54.644-.243,1.356-.243,2,0,.586.235,1.037.719,1.23,1.32.11.322.164.66.16,1,.005.34-.049.678-.16,1-.098.297-.258.57-.47.8-.213.226-.472.404-.76.52-.316.137-.656.208-1,.21ZM65.46,5.98c.213.005.424-.047.61-.15.167-.097.311-.231.42-.39.119-.161.204-.345.25-.54.106-.4.106-.82,0-1.22-.055-.188-.151-.362-.28-.51-.109-.159-.253-.293-.42-.39-.186-.103-.397-.155-.61-.15-.213-.007-.424.045-.61.15-.17.097-.317.23-.43.39-.115.162-.197.346-.24.54-.106.4-.106.82,0,1.22.047.193.128.376.24.54.113.16.26.293.43.39.198.1.42.141.64.12Z" fill="#000" stroke-width="0"/><path d="M72.9,5.62c-.021.092-.021.188,0,.28.049.058.124.088.2.08h.26v.73h-.66c-.189.009-.376-.037-.54-.13-.157-.099-.26-.265-.28-.45-.218.205-.482.356-.77.44-.284.093-.581.14-.88.14-.21.002-.419-.029-.62-.09-.19-.05-.37-.135-.53-.25-.151-.118-.274-.268-.36-.44-.092-.19-.136-.399-.13-.61-.012-.253.043-.505.16-.73.103-.178.252-.327.43-.43.182-.111.381-.188.59-.23.22,0,.44-.08.66-.1.181-.041.365-.067.55-.08.159.021.32.028.48.02.12-.028.23-.086.32-.17.084-.096.123-.223.11-.35.004-.117-.028-.232-.09-.33-.065-.083-.147-.151-.24-.2-.1-.05-.209-.08-.32-.09h-.34c-.256-.007-.509.059-.73.19-.194.125-.314.339-.32.57h-1.04c.013-.514.283-.988.72-1.26.211-.122.441-.206.68-.25.257-.052.518-.079.78-.08.232.002.464.029.69.08.22.04.43.122.62.24.179.106.33.253.44.43.114.194.169.416.16.64v2.43ZM71.9,4.29c-.179.109-.381.174-.59.19-.24,0-.47,0-.71.09l-.32.08c-.099.034-.193.082-.28.14-.079.062-.144.141-.19.23-.046.111-.07.23-.07.35-.002.11.037.217.11.3.064.082.146.147.24.19.1.041.204.071.31.09h.31c.128.002.257-.014.38-.05.137-.029.269-.08.39-.15.119-.074.222-.173.3-.29.084-.124.126-.271.12-.42v-.75Z" fill="#000" stroke-width="0"/><path d="M78.71,6.68h-1v-.64h0c-.128.262-.344.47-.61.59-.274.12-.571.181-.87.18-.344.014-.687-.055-1-.2-.271-.126-.51-.31-.7-.54-.187-.241-.327-.516-.41-.81-.099-.324-.146-.661-.14-1-.007-.37.05-.739.17-1.09.104-.288.263-.554.47-.78.188-.196.417-.35.67-.45.243-.091.5-.138.76-.14.15-.01.3-.01.45,0,.154.031.305.078.45.14.139.061.27.138.39.23.118.096.219.211.3.34h0V.08h1l.07,6.6ZM75.03,4.34c0,.203.028.404.08.6.045.191.126.371.24.53.104.156.245.283.41.37.182.094.385.142.59.14.213.007.424-.045.61-.15.167-.097.311-.231.42-.39.104-.168.185-.35.24-.54.049-.2.072-.405.07-.61.03-.441-.093-.88-.35-1.24-.238-.307-.613-.475-1-.45-.218-.008-.433.047-.62.16-.167.097-.311.231-.42.39-.109.172-.187.361-.23.56-.038.208-.051.419-.04.63Z" fill="#000" stroke-width="0"/><path d="M82.29,1.9h.79v-.4c-.011-.248.026-.496.11-.73.05-.168.143-.319.27-.44.125-.1.273-.169.43-.2.163-.016.327-.016.49,0,.248-.009.496.012.74.06v.78l-.22-.05h-.27c-.13.001-.257.036-.37.1-.114.1-.171.25-.15.4v.49h.9v.79h-.9v4h-1V2.7h-.79l-.03-.8Z" fill="#000" stroke-width="0"/><path d="M88.04,6.81c-.343.004-.683-.06-1-.19-.287-.113-.543-.291-.75-.52-.215-.23-.378-.502-.48-.8-.111-.322-.165-.66-.16-1-.004-.34.05-.678.16-1,.104-.297.267-.569.48-.8.21-.225.466-.403.75-.52.645-.241,1.355-.241,2,0,.286.12.545.297.76.52.206.234.366.506.47.8.11.322.164.66.16,1,.005.34-.049.678-.16,1-.102.295-.262.567-.47.8-.213.226-.472.404-.76.52-.317.13-.657.195-1,.19ZM88.04,5.98c.213.004.423-.048.61-.15.167-.097.311-.231.42-.39.111-.166.195-.348.25-.54.106-.4.106-.82,0-1.22-.051-.193-.135-.376-.25-.54-.109-.159-.253-.293-.42-.39-.386-.199-.844-.199-1.23,0-.167.097-.311.231-.42.39-.115.164-.199.347-.25.54-.093.401-.093.819,0,1.22.055.192.139.374.25.54.109.159.253.293.42.39.19.103.404.155.62.15Z" fill="#000" stroke-width="0"/><path d="M91.46,1.9h1v.93h0c.032-.138.094-.268.18-.38.092-.13.203-.245.33-.34.127-.103.269-.187.42-.25.15-.06.309-.09.47-.09h.4v1h-.46c-.172.002-.343.039-.5.11-.159.07-.299.176-.41.31-.124.151-.219.324-.28.51-.072.23-.106.469-.1.71v2.27h-1l-.05-4.78Z" fill="#000" stroke-width="0"/><path id="Windows_logo" d="M0,3.45l9.91-1.35v9.56L0,11.72V3.45ZM9.91,12.76v9.57L.01,20.97v-8.27l9.9.06ZM11.11,1.92l13.14-1.92v11.54l-13.14.1V1.92ZM24.26,12.85v11.49l-13.15-1.86v-9.65l13.15.02Z" fill="#000" stroke-width="0"/></g></svg>